<svg width="50" height="50" viewBox="0 0 50 50" fill="none" xmlns="http://www.w3.org/2000/svg">
<rect width="50" height="50" rx="10" fill="#0077B6"/>
<g clip-path="url(#clip0_1757_3262)">
<path d="M24.4998 13.4619C17.6698 13.4619 12 18.0594 12 23.8899C12 27.3504 14.0005 30.3732 17.0525 32.2614C16.846 33.3914 15.8477 34.3679 14.8977 35.3739C14.8003 35.4773 14.7372 35.6083 14.7169 35.7489C14.6966 35.8895 14.7202 36.0329 14.7845 36.1597C14.8487 36.2864 14.9505 36.3902 15.0759 36.4569C15.2013 36.5237 15.3443 36.5501 15.4852 36.5327C17.724 36.2529 19.7847 35.0467 21.3112 33.9739C22.3584 34.2041 23.4276 34.3197 24.4998 34.3189C31.3298 34.3189 37 29.7207 37 23.8899C37 18.0592 31.3298 13.4619 24.4998 13.4619ZM24.4998 14.8427C30.7143 14.8427 35.619 18.9644 35.619 23.8902C35.619 28.8159 30.7143 32.9379 24.5 32.9379C23.9153 32.9378 23.3312 32.9004 22.7513 32.8259C22.6886 32.8176 22.6261 32.8087 22.5638 32.7994C22.4745 32.7864 22.3845 32.7742 22.2957 32.7594C22.2294 32.7481 22.1632 32.7362 22.0972 32.7239C22.0219 32.7106 21.9467 32.6967 21.8717 32.6824C21.79 32.6662 21.7087 32.6482 21.6275 32.6307C21.561 32.6162 21.494 32.6024 21.428 32.5869C21.2877 32.5542 21.1479 32.5191 21.0087 32.4817C20.7768 32.6478 20.5419 32.8098 20.3042 32.9677L20.3 32.9704C20.0977 33.1035 19.8935 33.2335 19.6873 33.3604C19.0048 33.7844 18.2665 34.1947 17.496 34.5204C17.8405 34.0484 18.135 33.5287 18.309 32.9482C18.3347 32.8608 18.3575 32.7721 18.3775 32.6819C18.3848 32.6497 18.3918 32.6175 18.3985 32.5852C18.4137 32.5093 18.4266 32.4326 18.4373 32.3549C18.4453 32.2974 18.4503 32.2387 18.4557 32.1799C18.4608 32.1227 18.4672 32.0662 18.4697 32.0074C18.4752 31.8812 18.4755 31.7524 18.4675 31.6202C18.4652 31.5717 18.4578 31.5236 18.4455 31.4767L18.4443 31.4762L18.4367 31.4719C18.2711 31.3831 18.1076 31.2902 17.9465 31.1934C17.8888 31.1587 17.8317 31.1235 17.775 31.0877C15.095 29.4229 13.3813 26.7984 13.3813 23.8902C13.3813 18.9644 18.2853 14.8427 24.4998 14.8427ZM23.988 15.3839C23.9015 15.3847 23.8145 15.3889 23.7275 15.3919C23.7393 15.4219 23.7405 15.4582 23.7157 15.5112C24.0562 15.5832 24.3872 15.3704 24.7347 15.4662C25.0437 15.5324 25.4088 15.6257 25.607 15.8574C25.73 15.9157 25.156 15.6712 25.277 15.9347C25.4148 16.2164 25.7975 16.1834 26.0428 16.0424C26.3688 15.9974 26.096 16.3272 26.3173 16.4104C26.1025 16.4314 25.7735 16.5909 25.486 16.6067C25.226 16.6014 25.2745 16.8352 25.5065 16.8219C25.7688 16.8839 26.1465 16.6974 26.2385 17.0362C26.2796 17.0428 26.3176 17.0622 26.3471 17.0918C26.3765 17.1213 26.3958 17.1594 26.4023 17.2005C26.4087 17.2417 26.402 17.2839 26.383 17.321C26.3641 17.3581 26.3339 17.3883 26.2968 17.4072C26.3975 17.5447 26.5908 17.6614 26.4873 17.8032C26.3548 18.0549 26.0468 18.0102 25.7598 18.0534C25.4923 18.0727 25.1973 17.8609 24.9478 18.0509C24.6553 18.2224 24.6365 18.5947 24.337 18.7534C24.1195 19.0897 24.26 19.2634 24.3748 19.3659C24.5655 19.4314 25.0025 19.3929 25.2222 19.2279C25.2443 19.0912 25.189 18.9279 25.169 18.8319C25.2257 18.8769 25.2423 18.9077 25.2413 18.9269C25.2472 18.9912 25.3535 19.0394 25.3647 19.0509C25.5048 19.1324 25.3492 19.3832 25.3415 19.4434C25.065 19.4184 24.7705 19.4597 24.485 19.4792C24.5095 19.6059 24.1812 19.7202 24.195 19.7274C23.8962 19.6737 23.7578 19.7887 23.5588 19.9274C23.5448 19.9329 23.3845 19.9774 23.3845 19.9774C23.4028 19.9974 23.331 20.0887 23.3608 20.0854C23.739 20.0447 23.7745 20.2522 23.7615 20.4414C23.602 20.6632 22.923 20.3164 23.049 20.7884C22.993 21.0172 22.8572 21.3902 23.2732 21.3527H23.2738C23.2738 21.3527 23.4932 21.3019 23.509 21.3019C23.525 21.3019 24.0122 21.1174 24.0122 21.1174L24.0262 21.1164C24.0297 21.0872 24.0488 21.0477 24.0913 20.9914C24.204 20.8327 24.4212 20.6897 24.6392 20.6902C24.5343 20.8027 24.7483 21.0402 24.7008 21.1254L24.904 21.1412C24.9538 21.0999 24.9577 21.0702 24.9882 21.0302C25.0202 20.9949 24.9103 20.8009 24.944 20.7874C24.9488 20.7854 24.9565 20.7862 24.9683 20.7927C25.1103 20.8577 25.5315 21.0962 25.157 21.1212C25.1645 21.3802 25.2025 21.2699 25.4235 21.3332C25.549 21.3272 25.5995 21.0244 25.7325 21.0032C25.7538 21.0001 25.7755 21.0034 25.795 21.0127C25.847 21.0749 25.9088 21.1479 25.977 21.2167C26.0695 21.2827 26.217 21.2674 26.3298 21.1784C26.3885 21.0957 26.2735 20.9229 26.2898 20.9282C26.3383 20.9927 26.461 21.1387 26.4727 21.1994C26.6595 21.3417 26.8995 21.3072 27.0775 21.3947C27.2388 21.3494 27.4618 21.3942 27.2797 21.5629C27.0025 21.6014 26.6932 21.6469 26.4183 21.5554C26.1892 21.4514 25.9137 21.5062 25.8387 21.7334C25.6252 21.6419 25.367 21.5584 25.1445 21.4572C24.482 21.1224 23.8322 21.2432 23.2195 21.4039L23.2732 21.3527C23.1327 21.5064 22.8892 21.6222 22.844 21.8652C22.6485 22.0647 22.3477 22.1547 22.2192 22.4309C21.9387 22.6502 22.1377 22.9552 22.0575 23.2249C21.9215 23.3417 21.8255 23.4564 22.002 23.5989C22.0695 23.8444 22.3857 24.4119 22.4727 24.6599C22.7352 24.8394 23.032 25.1109 23.3897 24.9452C23.7222 24.9832 24.0285 24.8804 24.3252 24.8062C24.5087 24.9427 24.7008 25.0087 24.9272 25.0369C25.0142 25.2749 24.7572 25.5959 25.1062 25.7604C25.3127 25.9964 25.4462 26.3387 25.3503 26.6272C25.1335 26.8607 25.1017 27.1974 25.308 27.4462C25.4977 27.7309 25.363 28.0879 25.6015 28.3652C25.7565 28.5357 25.5455 29.0059 25.9165 28.9639C26.2015 28.8327 26.5577 28.9974 26.818 28.7984C27.0487 28.6272 27.3112 28.4634 27.4285 28.2127C27.5843 27.9937 27.923 27.9139 27.8325 27.6002C27.8258 27.2362 28.4255 27.3347 28.4853 26.9827C28.654 26.6327 28.3713 26.2797 28.447 25.9269C28.6073 25.6269 28.872 24.9219 29.1575 24.7084C29.4775 24.4049 29.6365 23.9837 29.6295 23.5709C29.4175 23.3414 29.047 23.7952 28.8878 23.6354L28.3528 23.1619L28.3538 23.1614C28.2518 23.0822 28.1173 22.9144 28.1035 22.8474C28.0515 22.7387 27.9884 22.6357 27.9152 22.5399C27.8252 22.4217 27.5378 22.0774 27.5828 22.1214C27.711 22.2564 27.8532 22.4147 27.9965 22.5734C28.14 22.7322 28.2625 22.9559 28.4648 23.1159C28.9375 23.5709 29.143 23.5302 29.6022 23.2299C29.7972 23.0432 30.091 22.9267 30.1338 22.6457C30.2478 22.4342 30.1063 22.2244 29.9333 22.1332C29.7408 22.1019 29.5457 22.1467 29.3307 22.1019C29.2253 21.9769 29.0475 21.8839 28.9255 21.7977C28.92 21.7857 28.9022 21.7684 28.8797 21.7362C28.8647 21.7224 28.8662 21.7197 28.8722 21.7199C28.878 21.7204 28.888 21.7237 28.8897 21.7212C28.9172 21.7412 28.9335 21.7584 28.9417 21.7642L29.2588 21.9467C29.4363 22.0869 29.663 22.0567 29.8923 22.0792C30.2097 22.0967 30.6245 21.9142 30.8423 22.2222C30.9468 22.4754 31.3995 22.4377 31.3885 22.7702C31.567 23.1172 31.7917 23.4512 31.9247 23.8119C32.0203 23.9949 32.2705 23.9182 32.271 24.1292C32.5555 24.3627 32.6992 23.9017 32.4998 23.7369C32.3398 23.4422 32.1935 23.0989 32.3008 22.7744C32.4757 22.5339 32.3838 22.1814 32.6238 21.9849C32.9973 22.0129 32.9805 22.4314 33.172 22.6332C33.5645 22.6527 33.571 23.0867 33.646 23.3507C33.5623 23.6207 33.92 23.8809 33.8822 24.0952C33.7 23.8464 33.3733 24.1244 33.603 24.3169C33.8413 24.5904 33.8927 24.9419 33.9902 25.2679C34.0375 25.5307 34.1807 25.7714 34.2447 26.0257C34.2795 26.2057 34.4198 26.3199 34.5658 26.4304C34.5895 26.3709 34.615 26.3124 34.637 26.2522C34.6702 26.1614 34.699 26.0684 34.7288 25.9762C34.6898 25.9507 34.6403 25.9389 34.5718 25.9507C34.3825 25.6864 34.6265 25.3354 34.4002 25.0802C34.3263 24.8214 34.4403 24.5682 34.337 24.3162C34.337 23.9812 34.066 23.7442 33.937 23.4504C33.8468 23.3204 33.8293 22.8639 33.992 23.1909C34.087 23.3034 34.1877 23.6519 34.2987 23.6032C34.4328 23.2674 34.542 22.8927 34.39 22.5464C34.386 22.2882 33.9675 22.0534 33.9925 21.8834C34.402 21.7819 33.8097 21.3527 34.01 21.1109C34.0763 20.9209 33.8832 20.5832 34.1882 20.7102C34.2125 20.6659 34.2188 20.6217 34.219 20.5777C34.1545 20.4542 34.0866 20.3325 34.0155 20.2127C34.0005 20.1877 33.984 20.1634 33.9688 20.1384L33.968 20.1379C33.9167 20.0837 33.8655 20.0319 33.8235 19.9847C33.598 19.8412 33.5952 19.5812 33.4235 19.4009C33.234 19.1824 33.0223 18.9729 32.7495 18.8367C32.5945 18.7367 32.3555 18.5294 32.4015 18.3787C32.4765 18.4337 32.5863 18.4984 32.673 18.5169L32.646 18.4894C30.526 16.4249 27.3442 15.3137 24.445 15.3899C24.2926 15.3843 24.14 15.3823 23.9875 15.3837M23.0387 15.4364C19.153 15.8267 15.2075 18.3542 14.1875 22.1387V22.1392C14.2352 22.3322 14.3403 22.5652 14.6223 22.6567C14.7977 22.7329 14.7283 22.9772 14.9265 23.0859C15.1875 23.3012 15.0155 23.6169 15.2403 23.8427C15.3128 23.9992 15.4007 24.1147 15.5895 24.0164C15.9062 24.1274 15.6077 24.5529 15.4767 24.7439C15.27 24.9939 15.4663 25.3039 15.351 25.5709C15.439 25.9154 15.7435 26.1739 15.87 26.5064C15.96 26.8412 16.2902 26.9887 16.5792 27.1614C16.821 27.3824 16.8117 27.7104 16.9255 27.9854C17.02 28.2687 17.0905 28.5594 17.2552 28.8184C17.4062 29.1209 17.4465 29.4599 17.6747 29.7307C17.8525 29.9699 18.0312 30.2074 18.1835 30.4604C18.3327 30.6352 18.538 30.7804 18.6565 30.9734L18.757 31.0259C18.758 31.0262 18.7588 31.0267 18.7595 31.0274C19.056 31.1307 19.4375 31.3074 19.6815 31.0694C19.79 30.7659 19.3568 30.8959 19.219 30.7037C18.9242 30.5642 19.149 30.1737 18.773 30.1169C18.8652 29.9972 18.6588 29.8762 18.737 29.7047C18.684 29.5559 18.5792 29.3397 18.822 29.2857C18.9647 29.1042 18.7168 28.8727 18.9695 28.7462C19.049 28.4522 19.184 28.1584 19.1438 27.8512C19.0585 27.4644 19.6667 27.5819 19.728 27.2529C19.8625 26.9622 19.773 26.6484 19.823 26.3489C19.971 26.0797 20.3398 25.7632 20.0695 25.4524C19.783 25.2297 19.4132 25.1514 19.0763 25.0477C18.8568 24.8934 18.4132 24.9644 18.4855 24.6362C18.4253 24.3119 18.0918 24.1859 17.781 24.1037C17.491 24.0194 17.5712 23.6949 17.4235 23.5562C16.6902 23.3924 16.7263 23.4417 16.5943 23.3054C16.392 23.2262 16.2817 23.2979 16.1035 23.3739C16.0352 23.5097 15.8763 23.5764 15.7053 23.5864C15.2912 23.6709 15.5338 23.1392 15.619 22.9624C15.7107 22.7404 15.3388 22.6314 15.3063 22.6089C15.4233 22.3572 15.572 21.9049 15.9783 22.0964C16.1168 22.1574 16.0917 22.2739 16.0507 22.3572C16.429 22.4139 16.4025 22.6774 16.6365 22.8394C16.7795 22.6664 17.3405 23.0314 17.2055 22.6597C16.953 22.4714 16.6147 22.4084 16.4115 22.1504C16.3135 21.8772 16.809 21.6727 16.6128 21.3807C16.5273 21.2274 16.4507 21.4802 16.5243 21.2647C16.5532 20.9322 16.8985 20.7677 17.2168 20.6957C17.4718 20.5097 17.6125 20.1644 17.9948 20.1539C18.2745 20.1797 18.3158 19.7447 18.5648 20.0089C18.7873 19.9997 19.1348 19.9944 19.2845 19.8104C19.35 19.8232 19.752 20.1174 19.8703 19.8319C19.9738 19.6704 19.7923 19.4387 20.0347 19.3362C20.1182 19.0424 20.0068 18.7184 20.2625 18.4667C20.4425 18.2197 20.778 18.1517 21.06 18.0367C21.204 17.9362 21.0312 17.8079 21.226 17.7174C21.3985 17.5344 21.461 17.2162 21.7638 17.1919C21.9462 17.0874 21.8507 17.2352 21.904 17.2864C22.102 17.5514 21.5625 17.6502 21.4642 17.8639C21.1975 18.0769 20.893 18.3612 20.9622 18.7084C21.1312 19.1172 21.524 18.6984 21.7247 18.5464C22.1422 18.4114 22.5837 18.3514 23.006 18.2332C23.1805 18.1502 23.0848 17.9699 23.285 17.8767C23.4625 17.7017 23.4885 17.4367 23.7533 17.3722C23.8147 17.0437 23.3593 16.9764 23.0883 16.9704C23.0168 16.6722 22.64 16.7022 22.3918 16.5922C22.6193 16.5014 22.1248 16.5084 22.2823 16.3947C22.127 16.3792 21.9648 16.1664 21.8155 16.3097C21.758 16.2344 21.2 16.3092 21.425 16.0442C21.9175 15.7492 22.591 15.8217 23.0335 15.4459C23.0365 15.4432 23.0365 15.4397 23.039 15.4367M25.039 17.0804C25.0065 17.0789 24.978 17.0829 24.9605 17.0944C24.848 17.1599 24.783 17.4492 24.997 17.3134C25.114 17.3707 25.3885 17.3789 25.2085 17.2189C25.2653 17.1419 25.1368 17.0849 25.0393 17.0804M25.8438 17.1284C25.8232 17.1302 25.803 17.1342 25.7832 17.1402C25.593 17.3942 25.8182 17.7357 26.0767 17.8694C26.271 17.9817 26.5942 17.7154 26.271 17.6582C25.9843 17.6207 26.1145 17.1072 25.8435 17.1282M24.5655 17.2512C24.5434 17.2497 24.5212 17.2506 24.4993 17.2537L24.463 17.2522C24.1025 17.2847 24.093 17.6994 24.464 17.7269C24.8285 17.7914 24.8752 17.2749 24.566 17.2512H24.5655ZM21.513 17.2672C21.516 17.2657 21.521 17.2672 21.5265 17.2754C21.5055 17.3074 21.5032 17.2727 21.513 17.2672ZM20.3595 17.6179C20.4845 17.6322 20.4808 17.7527 20.3165 17.6744C20.25 17.6867 20.182 17.6354 20.298 17.6194C20.3213 17.6164 20.3418 17.6159 20.3595 17.6179ZM19.6345 17.6264C19.6556 17.6235 19.6771 17.6261 19.697 17.6339C19.6095 17.8244 19.7735 18.0507 19.4788 18.1552C19.3083 18.2434 19.005 18.6284 18.944 18.2582C18.924 17.9412 19.2177 17.6577 19.5715 17.6332C19.5922 17.6329 19.6133 17.6282 19.6345 17.6264ZM20.1982 18.2809C19.9745 18.2939 20.195 18.4384 20.1982 18.2809V18.2809ZM22.7017 18.3859C22.6828 18.3872 22.6644 18.392 22.6473 18.4002C22.5938 18.5527 22.1848 18.4614 22.4455 18.6227C22.5978 18.8684 23.0555 18.8739 23.257 18.6887C23.3562 18.4572 23.0553 18.3524 22.8645 18.4189C22.8132 18.4037 22.757 18.3819 22.702 18.3862M23.6772 19.1502C23.5382 19.1547 23.4202 19.2389 23.4292 19.4037C23.2655 19.5069 22.9125 19.7777 23.166 19.9177C23.4827 19.8834 23.6835 19.7832 23.968 19.6837L24.0057 19.5519C23.9267 19.4604 23.8707 19.3502 23.9277 19.2284C23.8551 19.1756 23.7671 19.1481 23.6772 19.1502ZM19.1813 19.5322C19.1877 19.5357 19.1937 19.5422 19.2013 19.5439C19.3078 19.6952 18.8695 19.6327 19.1588 19.5337C19.1675 19.5277 19.1745 19.5284 19.1813 19.5322ZM28.0742 20.1444C28.1392 20.2569 28.5225 20.3849 28.425 20.4627C28.308 20.3979 28.031 20.2027 28.0742 20.1444ZM26.64 20.2819C26.759 20.5789 27.1383 20.2759 27.3438 20.4269C27.4677 20.4612 27.5798 20.6012 27.3605 20.5407C27.123 20.3319 26.6055 20.8162 26.5553 20.4794C26.5697 20.4094 26.6088 20.3464 26.64 20.2819ZM28.5345 20.6249C28.5463 20.6239 28.5581 20.625 28.5695 20.6282C28.8215 20.6452 28.747 20.9399 28.5452 20.7619C28.507 20.7309 28.4683 20.6314 28.5345 20.6249ZM15.636 20.8192L15.6645 20.8332C15.702 21.1824 16.1972 20.7692 16.1905 21.1262C16.1572 21.3317 15.9775 21.6002 16.2197 21.7717C16.403 21.9039 16.1332 21.9292 16.0547 21.8047C15.838 21.6959 15.6655 22.0064 15.4137 21.8689C15.1505 21.7812 15.0855 22.3599 14.8718 22.0372C14.82 21.8107 14.9967 21.5942 15.0825 21.3839C15.2145 21.1719 15.3388 20.9252 15.6015 20.8214L15.636 20.8192ZM34.514 21.2157C34.3207 21.3664 34.617 21.6969 34.6365 21.8992C34.767 22.0724 34.8045 22.2172 34.884 22.3817C34.8758 22.3454 34.8698 22.3079 34.8608 22.2717C34.7719 21.9114 34.656 21.5584 34.514 21.2157ZM26.3433 21.2587C25.9268 21.3529 26.3695 21.4164 26.5375 21.4169C26.6103 21.2862 26.4735 21.3014 26.3433 21.2587ZM16.065 22.4532C15.8693 22.4559 16.117 22.7614 16.299 22.7207C16.4202 22.6922 16.337 22.6414 16.279 22.5344C16.2508 22.5057 16.216 22.4843 16.1778 22.4719C16.1413 22.4603 16.1033 22.454 16.065 22.4532ZM34.9385 22.6424C34.858 22.8654 34.882 23.1514 34.984 23.3367C35.0011 23.3356 35.0178 23.331 35.033 23.3232C35.0293 23.2769 35.028 23.2312 35.0233 23.1847C35.0016 23.0029 34.9734 22.8221 34.9385 22.6424ZM29.6635 23.1969C29.649 23.1982 29.6308 23.2352 29.6735 23.2114C29.6718 23.2009 29.6685 23.1961 29.6635 23.1969ZM35.0443 23.4919C34.7753 23.7007 34.9802 24.0769 34.7605 24.3162C34.5405 24.4897 34.523 24.7552 34.5675 24.9969C34.6318 25.2012 34.5605 25.5852 34.8295 25.6277C34.848 25.5582 34.8685 25.4892 34.8845 25.4189C35.027 24.8034 35.0823 24.1589 35.0443 23.4919ZM34.3757 25.0619C34.39 25.0602 34.407 25.0712 34.3832 25.0994C34.3497 25.0774 34.3612 25.0634 34.3757 25.0619ZM29.29 26.6027C29.245 26.6762 29.1612 26.8394 29.05 26.7352C29.194 27.0632 28.4733 26.9937 28.613 27.3569C28.5405 27.6157 28.2445 27.9554 28.5278 28.1849C28.8778 28.3057 29.0028 27.9609 29.1135 27.7442C29.2367 27.5234 29.3605 27.3034 29.4932 27.0872C29.4648 26.9357 29.5418 26.6147 29.29 26.6027ZM29.125 30.3404C28.7882 30.3894 28.9725 30.8484 29.243 30.6102C29.278 30.5219 29.2553 30.3524 29.125 30.3404ZM19.6372 30.4004C19.2537 30.4087 19.6208 30.9537 19.7913 30.6059C19.8283 30.3889 19.7453 30.4604 19.637 30.4002M27.088 31.1877C26.739 31.1697 26.2075 31.3319 25.9843 31.3042C25.7393 31.2792 25.562 31.1962 25.3328 31.3032C25.0578 31.2874 24.8007 31.1899 24.524 31.1904C24.4845 31.1902 24.4446 31.1923 24.4043 31.1967C24.09 31.2717 23.7667 31.2677 23.4505 31.3209C23.209 31.4309 23.263 31.7967 22.9602 31.8354C22.9295 32.0464 22.7207 32.0829 22.5577 32.0312C22.513 32.0754 22.5387 32.1444 22.5562 32.1987C23.6742 32.3587 24.8477 32.3957 26.0468 32.3149C26.8055 32.2497 27.5735 32.0889 28.3255 31.8469C27.9878 31.8787 27.7195 31.8339 27.5763 31.6732C27.6208 31.4532 27.2478 31.4864 27.3577 31.2794C27.3003 31.2194 27.2045 31.1937 27.088 31.1877ZM20.7198 31.4427C20.6295 31.5557 20.6222 31.6727 20.6528 31.7859C20.7005 31.8002 20.7472 31.8159 20.7952 31.8294C20.8842 31.8549 20.975 31.8772 21.065 31.9007C20.9887 31.8517 20.9375 31.7859 20.9485 31.6782C20.9142 31.4164 20.841 31.4907 20.7198 31.4427ZM21.8348 32.0487C21.8162 32.0512 21.7935 32.0597 21.7727 32.0659L21.784 32.0684C21.8615 32.0842 21.94 32.0969 22.0183 32.1109C21.9508 32.0597 21.8958 32.0404 21.8348 32.0487Z" fill="white"/>
</g>
<defs>
<clipPath id="clip0_1757_3262">
<rect width="25" height="25" fill="white" transform="translate(12 12.5)"/>
</clipPath>
</defs>
</svg>
