<svg width="50" height="50" viewBox="0 0 50 50" fill="none" xmlns="http://www.w3.org/2000/svg">
<rect width="50" height="50" rx="10" fill="#0077B6"/>
<g clip-path="url(#clip0_1757_3258)">
<path d="M26.0625 15.625C27.2246 15.625 28.3184 15.8447 29.3438 16.2842C30.3691 16.7236 31.2627 17.3291 32.0244 18.1006C32.7861 18.8721 33.3867 19.7656 33.8262 20.7812C34.2656 21.7969 34.4902 22.8906 34.5 24.0625C34.5 24.6777 34.4609 25.2539 34.3828 25.791C34.3047 26.3281 34.1826 26.8408 34.0166 27.3291C33.8506 27.8174 33.6357 28.3008 33.3721 28.7793C33.1084 29.2578 32.7959 29.7461 32.4346 30.2441C32.1514 30.6348 31.9023 30.9863 31.6875 31.2988C31.4727 31.6113 31.2969 31.9238 31.1602 32.2363C31.0234 32.5488 30.9209 32.8906 30.8525 33.2617C30.7842 33.6328 30.75 34.0674 30.75 34.5654V37.1875C30.75 37.5781 30.6768 37.9443 30.5303 38.2861C30.3838 38.6279 30.1836 38.9258 29.9297 39.1797C29.6758 39.4336 29.3779 39.6338 29.0361 39.7803C28.6943 39.9268 28.3281 40 27.9375 40H24.1875C23.7969 40 23.4307 39.9268 23.0889 39.7803C22.7471 39.6338 22.4492 39.4336 22.1953 39.1797C21.9414 38.9258 21.7412 38.6279 21.5947 38.2861C21.4482 37.9443 21.375 37.5781 21.375 37.1875V34.5508C21.375 34.0527 21.3408 33.623 21.2725 33.2617C21.2041 32.9004 21.1016 32.5635 20.9648 32.251C20.8281 31.9385 20.6523 31.6211 20.4375 31.2988C20.2227 30.9766 19.9736 30.625 19.6904 30.2441C19.3291 29.7461 19.0215 29.2627 18.7676 28.7939C18.5137 28.3252 18.2988 27.8418 18.123 27.3438C17.9473 26.8457 17.8203 26.3281 17.7422 25.791C17.6641 25.2539 17.625 24.6777 17.625 24.0625C17.625 22.9004 17.8447 21.8066 18.2842 20.7812C18.7236 19.7559 19.3291 18.8623 20.1006 18.1006C20.8721 17.3389 21.7656 16.7383 22.7812 16.2988C23.7969 15.8594 24.8906 15.6348 26.0625 15.625ZM28.875 37.1875V36.25H23.25V37.1875C23.25 37.4414 23.3428 37.6611 23.5283 37.8467C23.7139 38.0322 23.9336 38.125 24.1875 38.125H27.9375C28.1914 38.125 28.4111 38.0322 28.5967 37.8467C28.7822 37.6611 28.875 37.4414 28.875 37.1875ZM32.625 24.0625C32.625 23.1543 32.4541 22.3047 32.1123 21.5137C31.7705 20.7227 31.3018 20.0244 30.7061 19.4189C30.1104 18.8135 29.417 18.3447 28.626 18.0127C27.835 17.6807 26.9805 17.5098 26.0625 17.5C25.1543 17.5 24.3047 17.6709 23.5137 18.0127C22.7227 18.3545 22.0244 18.8232 21.4189 19.4189C20.8135 20.0146 20.3447 20.708 20.0127 21.499C19.6807 22.29 19.5098 23.1445 19.5 24.0625C19.5 24.9316 19.5879 25.6787 19.7637 26.3037C19.9395 26.9287 20.1689 27.4854 20.4521 27.9736C20.7354 28.4619 21.0332 28.9209 21.3457 29.3506C21.6582 29.7803 21.9561 30.2295 22.2393 30.6982C22.5225 31.167 22.7568 31.6943 22.9424 32.2803C23.1279 32.8662 23.2305 33.5645 23.25 34.375H28.875C28.8848 33.5645 28.9824 32.8711 29.168 32.2949C29.3535 31.7188 29.5879 31.1914 29.8711 30.7129C30.1543 30.2344 30.4521 29.7852 30.7646 29.3652C31.0771 28.9453 31.375 28.4863 31.6582 27.9883C31.9414 27.4902 32.1709 26.9287 32.3467 26.3037C32.5225 25.6787 32.6152 24.9316 32.625 24.0625ZM26.0625 13.75C25.8086 13.75 25.5889 13.6572 25.4033 13.4717C25.2178 13.2861 25.125 13.0664 25.125 12.8125V10.9375C25.125 10.6836 25.2178 10.4639 25.4033 10.2783C25.5889 10.0928 25.8086 10 26.0625 10C26.3164 10 26.5361 10.0928 26.7217 10.2783C26.9072 10.4639 27 10.6836 27 10.9375V12.8125C27 13.0664 26.9072 13.2861 26.7217 13.4717C26.5361 13.6572 26.3164 13.75 26.0625 13.75ZM14.8125 23.5938H12.9375C12.6836 23.5938 12.4639 23.501 12.2783 23.3154C12.0928 23.1299 12 22.9102 12 22.6562C12 22.4023 12.0928 22.1826 12.2783 21.9971C12.4639 21.8115 12.6836 21.7188 12.9375 21.7188H14.8125C15.0664 21.7188 15.2861 21.8115 15.4717 21.9971C15.6572 22.1826 15.75 22.4023 15.75 22.6562C15.75 22.9102 15.6572 23.1299 15.4717 23.3154C15.2861 23.501 15.0664 23.5938 14.8125 23.5938ZM15.5889 27.417C15.8428 27.417 16.0625 27.5098 16.248 27.6953C16.4336 27.8809 16.5264 28.1055 16.5264 28.3691C16.5264 28.5645 16.4727 28.7354 16.3652 28.8818C16.2578 29.0283 16.1113 29.1455 15.9258 29.2334C15.8184 29.2822 15.6719 29.3457 15.4863 29.4238C15.3008 29.502 15.1006 29.585 14.8857 29.6729C14.6709 29.7607 14.4756 29.834 14.2998 29.8926C14.124 29.9512 13.9678 29.9854 13.8311 29.9951C13.5771 29.9951 13.3574 29.9023 13.1719 29.7168C12.9863 29.5312 12.8936 29.3066 12.8936 29.043C12.8936 28.8477 12.9473 28.6768 13.0547 28.5303C13.1621 28.3838 13.3086 28.2666 13.4941 28.1787C13.6016 28.1396 13.748 28.0762 13.9336 27.9883C14.1191 27.9004 14.3193 27.8174 14.5342 27.7393C14.749 27.6611 14.9443 27.5879 15.1201 27.5195C15.2959 27.4512 15.4521 27.417 15.5889 27.417ZM17.8154 17.9688C17.8154 18.2227 17.7227 18.4424 17.5371 18.6279C17.3516 18.8135 17.1318 18.9062 16.8779 18.9062C16.7021 18.9062 16.541 18.8623 16.3945 18.7744L14.7979 17.793C14.6611 17.7051 14.5537 17.5928 14.4756 17.4561C14.3975 17.3193 14.3535 17.1631 14.3438 16.9873C14.3438 16.7334 14.4365 16.5137 14.6221 16.3281C14.8076 16.1426 15.0273 16.0498 15.2812 16.0498C15.4375 16.0498 15.5986 16.0986 15.7646 16.1963L17.376 17.1631C17.5127 17.2412 17.6201 17.3535 17.6982 17.5C17.7764 17.6465 17.8154 17.8027 17.8154 17.9688ZM19.0312 12.5781C19.0312 12.3242 19.124 12.1045 19.3096 11.9189C19.4951 11.7334 19.7148 11.6406 19.9688 11.6406C20.1348 11.6406 20.291 11.6846 20.4375 11.7725C20.584 11.8604 20.7012 11.9775 20.7891 12.124L21.6973 13.7646C21.7754 13.9014 21.8145 14.0479 21.8145 14.2041C21.8145 14.4678 21.7217 14.6924 21.5361 14.8779C21.3506 15.0635 21.1309 15.1562 20.877 15.1562C20.7109 15.1562 20.5547 15.1123 20.4082 15.0244C20.2617 14.9365 20.1445 14.8193 20.0566 14.6729L19.1484 13.0322C19.0703 12.8955 19.0312 12.7441 19.0312 12.5781ZM39.1875 21.7188C39.4414 21.7188 39.6611 21.8115 39.8467 21.9971C40.0322 22.1826 40.125 22.4023 40.125 22.6562C40.125 22.9102 40.0322 23.1299 39.8467 23.3154C39.6611 23.501 39.4414 23.5938 39.1875 23.5938H37.3125C37.0586 23.5938 36.8389 23.501 36.6533 23.3154C36.4678 23.1299 36.375 22.9102 36.375 22.6562C36.375 22.4023 36.4678 22.1826 36.6533 21.9971C36.8389 21.8115 37.0586 21.7188 37.3125 21.7188H39.1875ZM39.2168 29.0576C39.2168 29.3115 39.124 29.5312 38.9385 29.7168C38.7529 29.9023 38.5332 29.9951 38.2793 29.9951C38.1719 29.9951 38.0254 29.9658 37.8398 29.9072C37.6543 29.8486 37.4541 29.7705 37.2393 29.6729C37.0244 29.5752 36.8291 29.4922 36.6533 29.4238C36.4775 29.3555 36.3262 29.2871 36.1992 29.2188C36.0234 29.1406 35.8818 29.0234 35.7744 28.8672C35.667 28.7109 35.6084 28.5352 35.5986 28.3398C35.5986 28.0762 35.6914 27.8564 35.877 27.6807C36.0625 27.5049 36.2871 27.4121 36.5508 27.4023C36.668 27.4023 36.8193 27.4365 37.0049 27.5049C37.1904 27.5732 37.3857 27.6514 37.5908 27.7393C37.7959 27.8271 37.9912 27.915 38.1768 28.0029C38.3623 28.0908 38.5137 28.1543 38.6309 28.1934C38.8066 28.2715 38.9482 28.3838 39.0557 28.5303C39.1631 28.6768 39.2168 28.8525 39.2168 29.0576ZM35.2471 18.9062C34.9932 18.9062 34.7734 18.8135 34.5879 18.6279C34.4023 18.4424 34.3096 18.2227 34.3096 17.9688C34.3096 17.8027 34.3486 17.6465 34.4268 17.5C34.5049 17.3535 34.6123 17.2412 34.749 17.1631L36.3604 16.1963C36.5264 16.0986 36.6875 16.0498 36.8438 16.0498C37.0977 16.0498 37.3174 16.1426 37.5029 16.3281C37.6885 16.5137 37.7812 16.7334 37.7812 16.9873C37.7812 17.1533 37.7422 17.3047 37.6641 17.4414C37.5859 17.5781 37.4736 17.6953 37.3271 17.793L35.7305 18.7744C35.584 18.8623 35.4229 18.9062 35.2471 18.9062ZM30.3105 14.2041C30.3105 14.0479 30.3496 13.9014 30.4277 13.7646L31.3359 12.124C31.4141 11.9775 31.5264 11.8604 31.6729 11.7725C31.8193 11.6846 31.9805 11.6406 32.1562 11.6406C32.4102 11.6406 32.6299 11.7334 32.8154 11.9189C33.001 12.1045 33.0938 12.3242 33.0938 12.5781C33.0938 12.7441 33.0547 12.8955 32.9766 13.0322L32.0684 14.6729C31.9902 14.8193 31.8779 14.9365 31.7314 15.0244C31.585 15.1123 31.4238 15.1562 31.248 15.1562C30.9941 15.1562 30.7744 15.0635 30.5889 14.8779C30.4033 14.6924 30.3105 14.4678 30.3105 14.2041Z" fill="white"/>
</g>
<defs>
<clipPath id="clip0_1757_3258">
<rect width="30" height="30" fill="white" transform="translate(12 10)"/>
</clipPath>
</defs>
</svg>
