<svg width="56" height="56" viewBox="0 0 56 56" fill="none" xmlns="http://www.w3.org/2000/svg">
<rect width="56" height="56" rx="14" fill="#94106C"/>
<path d="M18.6667 30.3331C18.446 30.3339 18.2295 30.272 18.0425 30.1546C17.8555 30.0372 17.7057 29.8692 17.6104 29.67C17.5151 29.4709 17.4782 29.2488 17.5042 29.0296C17.5301 28.8103 17.6176 28.6029 17.7567 28.4314L29.3067 16.5314C29.3934 16.4314 29.5114 16.3639 29.6416 16.3398C29.7717 16.3157 29.9061 16.3366 30.0228 16.399C30.1394 16.4614 30.2314 16.5617 30.2836 16.6832C30.3358 16.8048 30.3452 16.9405 30.3101 17.0681L28.0701 24.0914C28.004 24.2682 27.9818 24.4584 28.0054 24.6456C28.029 24.8329 28.0977 25.0116 28.2055 25.1664C28.3133 25.3213 28.4571 25.4477 28.6246 25.5348C28.792 25.6219 28.978 25.6671 29.1667 25.6664H37.3334C37.5542 25.6657 37.7706 25.7276 37.9576 25.845C38.1446 25.9623 38.2945 26.1304 38.3898 26.3295C38.4851 26.5287 38.5219 26.7508 38.496 26.97C38.4701 27.1893 38.3825 27.3967 38.2434 27.5681L26.6934 39.4681C26.6068 39.5681 26.4887 39.6357 26.3586 39.6598C26.2285 39.6838 26.0941 39.6629 25.9774 39.6005C25.8607 39.5381 25.7687 39.4379 25.7165 39.3163C25.6643 39.1947 25.655 39.059 25.6901 38.9314L27.9301 31.9081C27.9961 31.7313 28.0183 31.5412 27.9947 31.3539C27.9711 31.1667 27.9025 30.988 27.7946 30.8331C27.6868 30.6782 27.543 30.5518 27.3756 30.4648C27.2082 30.3777 27.0221 30.3325 26.8334 30.3331H18.6667Z" stroke="white" stroke-width="2.33333" stroke-linecap="round" stroke-linejoin="round"/>
</svg>
