<svg width="70" height="70" viewBox="0 0 70 70" fill="none" xmlns="http://www.w3.org/2000/svg">
<rect width="70" height="70" rx="35" fill="#CACCCE" fill-opacity="0.7"/>
<path d="M35 36.417C37.3472 36.417 39.25 34.5142 39.25 32.167C39.25 29.8198 37.3472 27.917 35 27.917C32.6528 27.917 30.75 29.8198 30.75 32.167C30.75 34.5142 32.6528 36.417 35 36.417Z" stroke="#0B1E36" stroke-width="2" stroke-linecap="round" stroke-linejoin="round"/>
<path d="M34.9993 20.8335C31.9936 20.8335 29.1109 22.0275 26.9855 24.153C24.8601 26.2784 23.666 29.161 23.666 32.1668C23.666 34.8472 24.2355 36.601 25.791 38.5418L34.9993 49.1668L44.2077 38.5418C45.7632 36.601 46.3327 34.8472 46.3327 32.1668C46.3327 29.161 45.1386 26.2784 43.0132 24.153C40.8878 22.0275 38.0051 20.8335 34.9993 20.8335Z" stroke="#0B1E36" stroke-width="2" stroke-linecap="round" stroke-linejoin="round"/>
</svg>
