<svg width="50" height="50" viewBox="0 0 50 50" fill="none" xmlns="http://www.w3.org/2000/svg">
<rect width="50" height="50" rx="10" fill="#0077B6"/>
<g clip-path="url(#clip0_1836_4996)">
<path d="M16.2344 31.1875C16.2135 31.1875 16.1823 31.1771 16.1406 31.1562C15.2448 30.5625 14.3672 29.8073 13.5078 28.8906C12.6484 27.974 11.9219 27.0365 11.3281 26.0781C11.1094 25.7656 11 25.4062 11 25C11 24.9062 11.0104 24.8073 11.0312 24.7031C11.0521 24.599 11.0729 24.5052 11.0938 24.4219C11.1146 24.3385 11.151 24.2448 11.2031 24.1406C11.2552 24.0365 11.2995 23.9531 11.3359 23.8906C11.3724 23.8281 11.4271 23.7396 11.5 23.625C11.5729 23.5104 11.625 23.4323 11.6562 23.3906C11.6875 23.349 11.75 23.2682 11.8438 23.1484C11.9375 23.0286 11.9948 22.9531 12.0156 22.9219C13.9323 20.3073 16.2865 18.4062 19.0781 17.2188C17.9323 15.1562 17.3594 14.0573 17.3594 13.9219C17.3594 13.724 17.4479 13.5729 17.625 13.4688C18.8333 12.8021 19.5 12.4688 19.625 12.4688C19.8125 12.4688 19.9583 12.5521 20.0625 12.7188L22 16.2969C22.9583 16.099 23.9583 16 25 16C27.7708 16 30.362 16.7161 32.7734 18.1484C35.1849 19.5807 37.1562 21.5052 38.6875 23.9219C38.8958 24.2448 39 24.6042 39 25C39 25.3958 38.8958 25.7552 38.6875 26.0781C37.7396 27.5573 36.6016 28.8776 35.2734 30.0391C33.9453 31.2005 32.4948 32.1146 30.9219 32.7812C32.0677 34.8438 32.6406 35.9427 32.6406 36.0781C32.6406 36.2865 32.5521 36.4375 32.375 36.5312C31.1667 37.1979 30.5052 37.5312 30.3906 37.5312C30.1927 37.5312 30.0417 37.4479 29.9375 37.2812L28 33.7031L27 31.8438L20.0625 19.0312L20.1719 18.9219C19.5677 19.1719 19.0521 19.4167 18.625 19.6562C18.6562 19.7083 19.3177 20.9271 20.6094 23.3125C21.901 25.6979 23.1667 28.0365 24.4062 30.3281C25.6458 32.6198 26.2656 33.7812 26.2656 33.8125C26.2656 33.8854 26.2188 33.9323 26.125 33.9531C25.9896 33.9844 25.6146 34 25 34C24.4062 34 24.0938 33.9635 24.0625 33.8906L16.9375 20.75C16.5312 21.0417 16.1042 21.3958 15.6562 21.8125C15.9062 22.2604 17.0208 24.3099 19 27.9609C20.9792 31.612 21.9688 33.4583 21.9688 33.5C21.9688 33.6042 21.9115 33.6562 21.7969 33.6562C21.651 33.6562 21.2214 33.5417 20.5078 33.3125C19.7943 33.0833 19.4167 32.9375 19.375 32.875L17.7188 29.7969L14.2188 23.3438C13.7604 23.8958 13.3542 24.4479 13 25C13.0208 25.0312 13.1146 25.1615 13.2812 25.3906C13.4479 25.6198 13.5677 25.7969 13.6406 25.9219L16.3906 31.0312C16.3906 31.1354 16.3385 31.1875 16.2344 31.1875ZM29.2031 29.5938L29.9688 31.0156C32.8125 29.8594 35.1562 27.8542 37 25C35.125 22.1146 32.7344 20.0885 29.8281 18.9219C30.526 19.5885 31.0625 20.362 31.4375 21.2422C31.8125 22.1224 32 23.0417 32 24C32 25.1042 31.7552 26.1484 31.2656 27.1328C30.776 28.1172 30.0885 28.9375 29.2031 29.5938ZM24.25 20C24.25 20.2083 24.3229 20.3854 24.4688 20.5312C24.6146 20.6771 24.7917 20.75 25 20.75C25.8958 20.75 26.6615 21.0677 27.2969 21.7031C27.9323 22.3385 28.25 23.1042 28.25 24C28.25 24.2083 28.3229 24.3854 28.4688 24.5312C28.6146 24.6771 28.7917 24.75 29 24.75C29.2083 24.75 29.3854 24.6771 29.5312 24.5312C29.6771 24.3854 29.75 24.2083 29.75 24C29.75 22.6875 29.2865 21.5677 28.3594 20.6406C27.4323 19.7135 26.3125 19.25 25 19.25C24.7917 19.25 24.6146 19.3229 24.4688 19.4688C24.3229 19.6146 24.25 19.7917 24.25 20ZM29.9688 18.9844L29.8281 18.9219L29.9375 19.0312L29.9688 18.9844Z" fill="white"/>
</g>
<defs>
<clipPath id="clip0_1836_4996">
<rect width="28" height="26" fill="white" transform="translate(11 12)"/>
</clipPath>
</defs>
</svg>
