<svg width="50" height="50" viewBox="0 0 50 50" fill="none" xmlns="http://www.w3.org/2000/svg">
<rect width="50" height="50" rx="10" fill="#0077B6"/>
<path d="M17.252 33C16.5587 33 15.9683 32.7567 15.481 32.27C14.9937 31.7847 14.75 31.1947 14.75 30.5C14.75 29.9013 14.9407 29.3727 15.322 28.914C15.7033 28.4553 16.1793 28.1707 16.75 28.06V21.94C16.1793 21.83 15.7033 21.5457 15.322 21.087C14.9407 20.6277 14.75 20.0987 14.75 19.5C14.75 18.8053 14.993 18.2153 15.479 17.73C15.9643 17.2433 16.554 17 17.248 17C17.942 17 18.5323 17.2433 19.019 17.73C19.5057 18.2167 19.7493 18.8067 19.75 19.5C19.75 20.0987 19.5593 20.6277 19.178 21.087C18.7967 21.5457 18.3207 21.8303 17.75 21.941V24.5H24.5V21.94C23.9293 21.83 23.4533 21.5457 23.072 21.087C22.6907 20.6277 22.5 20.0987 22.5 19.5C22.5 18.8053 22.743 18.2153 23.229 17.73C23.7143 17.2433 24.304 17 24.998 17C25.692 17 26.2823 17.2433 26.769 17.73C27.2557 18.2167 27.4993 18.8067 27.5 19.5C27.5 20.0987 27.3093 20.6277 26.928 21.087C26.5467 21.5457 26.0707 21.8303 25.5 21.941V24.5H32.27V21.94C31.6993 21.83 31.223 21.5457 30.841 21.087C30.4597 20.6277 30.269 20.0987 30.269 19.5C30.269 18.8053 30.512 18.2153 30.998 17.73C31.4833 17.2433 32.073 17 32.767 17C33.461 17 34.0517 17.2433 34.539 17.73C35.0263 18.2167 35.2697 18.8067 35.269 19.5C35.269 20.0987 35.0783 20.6277 34.697 21.087C34.3157 21.5457 33.8397 21.8303 33.269 21.941V25.5H25.5V28.06C26.0707 28.17 26.5467 28.4543 26.928 28.913C27.3093 29.3723 27.5 29.9013 27.5 30.5C27.5 31.1947 27.2573 31.7847 26.772 32.27C26.286 32.7567 25.696 33 25.002 33C24.308 33 23.7177 32.7567 23.231 32.27C22.7443 31.7833 22.5007 31.1933 22.5 30.5C22.5 29.9013 22.6907 29.3727 23.072 28.914C23.4533 28.4553 23.9293 28.1707 24.5 28.06V25.5H17.75V28.06C18.3207 28.17 18.7967 28.4543 19.178 28.913C19.5593 29.3723 19.75 29.9013 19.75 30.5C19.75 31.1947 19.5073 31.7847 19.022 32.27C18.536 32.7567 17.946 33 17.252 33ZM17.25 32C17.6613 32 18.0143 31.853 18.309 31.559C18.603 31.2643 18.75 30.9113 18.75 30.5C18.75 30.0887 18.603 29.7357 18.309 29.441C18.0143 29.147 17.6613 29 17.25 29C16.8387 29 16.4857 29.147 16.191 29.441C15.897 29.7357 15.75 30.0887 15.75 30.5C15.75 30.9113 15.897 31.2643 16.191 31.559C16.4857 31.853 16.8387 32 17.25 32ZM17.25 21C17.6613 21 18.0143 20.853 18.309 20.559C18.603 20.2643 18.75 19.9113 18.75 19.5C18.75 19.0887 18.603 18.7357 18.309 18.441C18.0143 18.147 17.6613 18 17.25 18C16.8387 18 16.4857 18.147 16.191 18.441C15.897 18.7357 15.75 19.0887 15.75 19.5C15.75 19.9113 15.897 20.2643 16.191 20.559C16.4857 20.853 16.8387 21 17.25 21ZM25 32C25.4113 32 25.7643 31.853 26.059 31.559C26.353 31.2643 26.5 30.9113 26.5 30.5C26.5 30.0887 26.353 29.7357 26.059 29.441C25.765 29.1463 25.412 28.9993 25 29C24.588 29.0007 24.235 29.1477 23.941 29.441C23.647 29.7343 23.5 30.0873 23.5 30.5C23.5 30.9127 23.647 31.2657 23.941 31.559C24.2357 31.853 24.5887 32 25 32ZM25 21C25.4113 21 25.7643 20.853 26.059 20.559C26.353 20.2643 26.5 19.9113 26.5 19.5C26.5 19.0887 26.353 18.7357 26.059 18.441C25.7643 18.147 25.4113 18 25 18C24.5887 18 24.2357 18.147 23.941 18.441C23.6463 18.735 23.4993 19.088 23.5 19.5C23.5007 19.912 23.6477 20.265 23.941 20.559C24.2357 20.853 24.5887 21 25 21ZM32.77 21C33.1813 21 33.534 20.853 33.828 20.559C34.122 20.2643 34.269 19.9113 34.269 19.5C34.269 19.0887 34.122 18.7357 33.828 18.441C33.534 18.147 33.181 18 32.769 18C32.357 18 32.0043 18.147 31.711 18.441C31.4163 18.7357 31.269 19.0887 31.269 19.5C31.269 19.9113 31.4163 20.2643 31.711 20.559C32.005 20.853 32.3577 21 32.769 21" fill="white"/>
</svg>
