<svg width="80" height="80" viewBox="0 0 80 80" fill="none" xmlns="http://www.w3.org/2000/svg">
<path d="M71.1109 28.8887H53.3331C52.1544 28.8887 51.0239 29.3569 50.1904 30.1904C49.3569 31.0239 48.8887 32.1544 48.8887 33.3331V66.6664C48.8887 67.8452 49.3569 68.9756 50.1904 69.8091C51.0239 70.6426 52.1544 71.1109 53.3331 71.1109H71.1109C72.2896 71.1109 73.4201 70.6426 74.2536 69.8091C75.0871 68.9756 75.5553 67.8452 75.5553 66.6664V33.3331C75.5553 32.1544 75.0871 31.0239 74.2536 30.1904C73.4201 29.3569 72.2896 28.8887 71.1109 28.8887ZM71.1109 33.3331V62.222H53.3331V33.3331H71.1109Z" fill="#0B1E36"/>
<path d="M62.2231 8.88867H8.88976C7.71102 8.88867 6.58056 9.35692 5.74706 10.1904C4.91357 11.0239 4.44531 12.1544 4.44531 13.3331V48.8887C4.44531 50.0674 4.91357 51.1979 5.74706 52.0314C6.58056 52.8649 7.71102 53.3331 8.88976 53.3331H26.6675V57.7776H20.712C20.0312 57.7002 19.3467 57.8878 18.8006 58.3016C18.2544 58.7153 17.8885 59.3235 17.7786 59.9998C17.8885 60.6761 18.2544 61.2842 18.8006 61.698C19.3467 62.1117 20.0312 62.2994 20.712 62.222H44.2675V61.3998H44.4453V48.8887H8.88976V13.3331H62.2231V24.4442H66.6675V13.3331C66.6675 12.1544 66.1993 11.0239 65.3658 10.1904C64.5323 9.35692 63.4018 8.88867 62.2231 8.88867Z" fill="#0B1E36"/>
</svg>
