<svg width="80" height="80" viewBox="0 0 80 80" fill="none" xmlns="http://www.w3.org/2000/svg">
<path d="M62.8122 26.25C62.3544 32.6047 57.6404 37.5 52.4997 37.5C47.3591 37.5 42.6372 32.6063 42.1872 26.25C41.7185 19.6391 46.3075 15 52.4997 15C58.6919 15 63.281 19.7594 62.8122 26.25Z" stroke="#0B1E36" stroke-width="5" stroke-linecap="round" stroke-linejoin="round"/>
<path d="M52.4994 47.5C42.3166 47.5 32.5244 52.5578 30.0713 62.4078C29.7463 63.7109 30.5634 65 31.9025 65H73.0978C74.4369 65 75.2494 63.7109 74.9291 62.4078C72.4759 52.4 62.6838 47.5 52.4994 47.5Z" stroke="#0B1E36" stroke-width="5" stroke-miterlimit="10"/>
<path d="M31.2505 29.0531C30.8849 34.1281 27.0755 38.125 22.9693 38.125C18.863 38.125 15.0474 34.1297 14.688 29.0531C14.3146 23.7734 18.0224 20 22.9693 20C27.9161 20 31.624 23.8703 31.2505 29.0531Z" stroke="#0B1E36" stroke-width="5" stroke-linecap="round" stroke-linejoin="round"/>
<path d="M32.1871 47.8125C29.3668 46.5203 26.2605 46.0234 22.9683 46.0234C14.8433 46.0234 7.0152 50.0625 5.05426 57.9297C4.79645 58.9703 5.44958 60 6.51833 60H24.0621" stroke="#0B1E36" stroke-width="5" stroke-miterlimit="10" stroke-linecap="round"/>
</svg>
