<svg width="50" height="50" viewBox="0 0 50 50" fill="none" xmlns="http://www.w3.org/2000/svg">
<rect width="50" height="50" rx="10" fill="#0077B6"/>
<g clip-path="url(#clip0_1841_3155)">
<path d="M20.5632 37C18.7242 37 16.1282 36.463 13.5352 34.13L15.5702 31.868C19.2062 35.141 22.9952 33.848 24.1652 32.756C24.2432 32.677 24.3212 32.603 24.3992 32.526C20.5692 32.153 17.7702 29.44 17.5772 29.249C14.6442 26.36 13.9772 22.441 16.0652 20.319C18.1532 18.197 22.0802 18.797 25.0152 21.676C25.2722 21.922 28.1312 24.728 28.6922 28.281C29.5372 27.6508 30.2237 26.8323 30.6971 25.8904C31.1705 24.9485 31.4177 23.9092 31.4192 22.855C31.4265 21.9632 31.2535 21.0791 30.9107 20.2559C30.5679 19.4326 30.0623 18.687 29.4242 18.064C28.0902 16.761 26.2022 16.044 24.1182 16.044V13C26.9982 13 29.6372 14.024 31.5482 15.882C33.4292 17.712 34.4652 20.186 34.4652 22.855C34.4621 24.8054 33.8789 26.7107 32.7898 28.3287C31.7007 29.9467 30.155 31.2041 28.3492 31.941C27.9332 33.041 27.2292 34.058 26.2432 34.981C25.2732 35.886 23.3782 36.889 20.9632 36.991C20.8338 36.9977 20.7005 37.0007 20.5632 37ZM19.2832 22.077C18.8582 22.077 18.4932 22.192 18.2372 22.452C17.4882 23.214 17.9622 25.356 19.7172 27.085L19.7252 27.094C19.7502 27.118 22.4962 29.781 25.7502 29.508V29.503C25.7652 26.63 22.9422 23.906 22.9132 23.878L22.8932 23.859C21.8502 22.832 20.3702 22.077 19.2832 22.077Z" fill="white"/>
</g>
<defs>
<clipPath id="clip0_1841_3155">
<rect width="24" height="24" fill="white" transform="translate(12 13)"/>
</clipPath>
</defs>
</svg>
