<svg width="50" height="50" viewBox="0 0 50 50" fill="none" xmlns="http://www.w3.org/2000/svg">
<rect width="50" height="50" rx="10" fill="#0077B6"/>
<path d="M18.143 27C17.3927 25.7712 16.9971 24.3588 17 22.919C17 18.545 20.582 15 25 15C29.418 15 33 18.545 33 22.919C33.003 24.3588 32.6074 25.7712 31.857 27" stroke="white" stroke-width="1.5" stroke-linecap="round"/>
<path d="M28.0004 32L27.8704 32.647C27.7304 33.354 27.6594 33.707 27.5004 33.987C27.2554 34.4186 26.8587 34.7436 26.3874 34.899C26.0824 35 25.7204 35 25.0004 35C24.2804 35 23.9184 35 23.6134 34.9C23.1419 34.7444 22.7452 34.4189 22.5004 33.987C22.3414 33.707 22.2704 33.354 22.1304 32.647L22.0004 32M20.3834 30.098C20.2914 29.822 20.2454 29.683 20.2504 29.571C20.256 29.4552 20.2951 29.3435 20.3629 29.2494C20.4307 29.1554 20.5243 29.083 20.6324 29.041C20.7364 29 20.8824 29 21.1724 29H28.8284C29.1194 29 29.2644 29 29.3684 29.04C29.4766 29.0821 29.5703 29.1546 29.6381 29.2489C29.7059 29.3431 29.7449 29.455 29.7504 29.571C29.7554 29.683 29.7094 29.821 29.6174 30.098C29.4474 30.609 29.3624 30.865 29.2314 31.072C28.9574 31.5046 28.5279 31.8156 28.0314 31.941C27.7934 32 27.5254 32 26.9884 32H23.0124C22.4754 32 22.2064 32 21.9694 31.94C21.473 31.8149 21.0436 31.5042 20.7694 31.072C20.6384 30.865 20.5534 30.609 20.3834 30.098Z" stroke="white" stroke-width="1.5"/>
<path d="M25.308 25.0001L23.847 20.4791C23.7964 20.3366 23.7023 20.2137 23.5779 20.1277C23.4535 20.0417 23.3052 19.9971 23.154 20.0001C23.0028 19.9971 22.8545 20.0417 22.7301 20.1277C22.6057 20.2137 22.5116 20.3366 22.461 20.4791L21 25.0001M28 20.0001V25.0001M21.538 23.5001H24.769" stroke="white" stroke-width="1.5" stroke-linecap="round" stroke-linejoin="round"/>
</svg>
