<svg width="50" height="50" viewBox="0 0 50 50" fill="none" xmlns="http://www.w3.org/2000/svg">
<rect width="50" height="50" rx="10" fill="#0077B6"/>
<path d="M25 18.25C24.4808 18.25 23.9733 18.096 23.5416 17.8076C23.11 17.5192 22.7735 17.1092 22.5748 16.6295C22.3761 16.1499 22.3242 15.6221 22.4254 15.1129C22.5267 14.6037 22.7767 14.136 23.1438 13.7688C23.511 13.4017 23.9787 13.1517 24.4879 13.0504C24.9971 12.9492 25.5249 13.0011 26.0045 13.1998C26.4842 13.3985 26.8942 13.735 27.1826 14.1666C27.471 14.5983 27.625 15.1058 27.625 15.625C27.6243 16.321 27.3475 16.9882 26.8553 17.4803C26.3632 17.9725 25.696 18.2493 25 18.25Z" fill="white"/>
<path d="M33.2495 18.2874L33.2284 18.2931L33.2087 18.2992C33.1619 18.3123 33.115 18.3263 33.0681 18.3409C32.1958 18.5968 27.962 19.7902 24.9794 19.7902C22.2077 19.7902 18.3569 18.759 17.125 18.4088C17.0024 18.3615 16.8772 18.3211 16.75 18.2879C15.8594 18.0535 15.25 18.9582 15.25 19.7851C15.25 20.604 15.9859 20.994 16.7289 21.2738V21.287L21.1923 22.681C21.6484 22.8559 21.7703 23.0345 21.8298 23.1892C22.0234 23.6856 21.8688 24.6685 21.8139 25.0117L21.542 27.121L20.0331 35.3799C20.0284 35.4024 20.0242 35.4254 20.0205 35.4488L20.0097 35.5084C19.9009 36.2654 20.4569 36.9999 21.5097 36.9999C22.4284 36.9999 22.8339 36.3657 23.0097 35.5027C23.1855 34.6398 24.3222 28.1167 24.9784 28.1167C25.6347 28.1167 26.9866 35.5027 26.9866 35.5027C27.1623 36.3657 27.5678 36.9999 28.4866 36.9999C29.5422 36.9999 30.0981 36.2621 29.9866 35.5027C29.977 35.4389 29.9651 35.3754 29.9509 35.3124L28.4214 27.122L28.15 25.0126C27.9536 23.784 28.1116 23.3781 28.165 23.2829C28.1664 23.2807 28.1677 23.2783 28.1687 23.2759C28.2194 23.1821 28.45 22.9721 28.9881 22.7701L33.1731 21.3071C33.1988 21.3003 33.2242 21.2921 33.2491 21.2827C33.9991 21.0015 34.7491 20.6124 34.7491 19.786C34.7491 18.9596 34.1402 18.0535 33.2495 18.2874Z" fill="white"/>
</svg>
