<svg width="50" height="50" viewBox="0 0 50 50" fill="none" xmlns="http://www.w3.org/2000/svg">
<rect width="50" height="50" rx="10" fill="#0077B6"/>
<g clip-path="url(#clip0_1836_5024)">
<path fill-rule="evenodd" clip-rule="evenodd" d="M22.0682 23.2628C22.4982 23.4328 22.9552 23.5238 23.4172 23.5328C23.8039 23.5575 24.1906 23.5575 24.5772 23.5328C25.3762 23.4728 25.9652 23.2928 27.0542 23.2428C27.2742 23.2428 27.9142 23.3128 28.3242 23.2428C28.5403 23.2256 28.7491 23.1571 28.9332 23.0428C29.2842 22.7828 29.5412 22.4128 29.6632 21.9928C29.8432 21.2348 29.9002 20.4528 29.8332 19.6748C29.8332 19.1048 29.9122 18.0368 29.8332 17.1668C29.811 16.7301 29.7023 16.3022 29.5132 15.9078C29.2583 15.4726 28.9601 15.0642 28.6232 14.6888C28.1498 14.1476 27.6424 13.6369 27.1042 13.1598C26.9836 13.052 26.826 12.9947 26.6642 12.9998C26.3342 12.9998 25.5452 13.1498 25.4152 13.1598L22.5082 13.5498C22.4359 13.5589 22.3676 13.5881 22.3111 13.6341C22.2545 13.68 22.212 13.7409 22.1882 13.8098C22.1636 13.7422 22.1186 13.6839 22.0596 13.6427C22.0005 13.6015 21.9302 13.5796 21.8582 13.5798C21.8136 13.5811 21.7696 13.5912 21.7289 13.6095C21.6881 13.6278 21.6514 13.6539 21.6207 13.6864C21.5901 13.719 21.5661 13.7572 21.5503 13.7989C21.5344 13.8407 21.5269 13.8852 21.5282 13.9298L21.4282 19.8648C21.4282 20.3048 21.2882 21.0348 21.2782 21.6538C21.2622 21.9738 21.3022 22.2958 21.3982 22.6038C21.4588 22.7537 21.5496 22.8895 21.6648 23.0029C21.7801 23.1163 21.9174 23.2047 22.0682 23.2628ZM27.8242 15.3688C28.0992 15.6988 28.3412 16.0578 28.5442 16.4378C28.6182 16.6188 28.6612 16.8118 28.6732 17.0078L28.6132 16.9978C28.0485 16.8885 27.4778 16.8117 26.9042 16.7678C26.694 16.7371 26.4909 16.6694 26.3042 16.5678C26.3042 16.3978 26.3842 16.1278 26.3842 15.9378V14.9878L26.3242 14.1288C26.4642 14.1288 26.5842 14.1288 26.6342 14.0288C27.0556 14.4542 27.4522 14.9008 27.8242 15.3688ZM22.5982 14.3688L25.4652 14.1088L25.3152 14.9588C25.3152 15.0388 25.2052 15.3788 25.1352 15.7688C25.0964 16.0636 25.0763 16.3605 25.0752 16.6578C25.0634 16.8329 25.0915 17.0084 25.1573 17.171C25.2232 17.3337 25.325 17.4792 25.4552 17.5968C25.7782 17.7768 26.1362 17.8818 26.5052 17.9068C27.1652 17.9068 27.8542 17.7468 28.5032 17.7868C28.5651 17.8061 28.6314 17.8061 28.6932 17.7868C28.6932 18.5468 28.5832 19.3458 28.5832 19.7848C28.6212 20.2548 28.6212 20.7248 28.5832 21.1948C28.3832 22.7628 27.6732 21.9838 27.0342 22.0138C25.9252 22.0838 25.3252 22.2638 24.5062 22.3438C24.1732 22.3647 23.8392 22.3647 23.5062 22.3438C23.2486 22.3487 22.991 22.3286 22.7372 22.2838C22.6472 22.2838 22.5472 22.1438 22.4972 22.1938C22.4323 21.9528 22.4053 21.7032 22.4172 21.4538C22.4172 20.8838 22.4872 20.2738 22.4672 19.8948L22.2172 14.1188C22.253 14.1866 22.3085 14.242 22.3763 14.2777C22.4441 14.3133 22.5211 14.3277 22.5972 14.3188L22.5982 14.3688ZM34.8082 32.1358C34.6725 31.9907 34.5137 31.8691 34.3382 31.7758C34.199 31.7185 34.0556 31.6717 33.9092 31.6358C34.2594 31.3134 34.5089 30.8966 34.6277 30.4357C34.7466 29.9748 34.7298 29.4894 34.5792 29.0378C34.4047 28.4788 34.0667 27.9849 33.6088 27.6199C33.1509 27.2548 32.5941 27.0354 32.0102 26.9898C31.4785 26.9513 30.9514 27.1116 30.5312 27.4398C29.9883 27.8958 29.6326 28.536 29.5322 29.2378C29.4403 29.6338 29.4608 30.0475 29.5916 30.4324C29.7224 30.8172 29.9581 31.1579 30.2722 31.4158C30.0122 31.4778 29.7622 31.5678 29.5222 31.6858C29.359 31.78 29.2107 31.898 29.0822 32.0358C28.9549 32.1792 28.8449 32.3358 28.7522 32.5058C28.5488 32.8905 28.4234 33.3115 28.3832 33.7448C28.2051 33.5231 27.9964 33.3278 27.7632 33.1648C27.5215 33.0169 27.2676 32.8898 27.0042 32.7848C27.3312 32.4145 27.5535 31.9638 27.6484 31.4791C27.7433 30.9944 27.7074 30.4931 27.5442 30.0268C27.2854 29.2769 26.7471 28.6558 26.0417 28.2929C25.3362 27.93 24.5179 27.8533 23.7572 28.0788C23.2736 28.2303 22.8362 28.5019 22.4859 28.8681C22.1357 29.2343 21.8838 29.6834 21.754 30.1733C21.6242 30.6632 21.6206 31.1779 21.7436 31.6696C21.8666 32.1612 22.1121 32.6137 22.4572 32.9848C22.3172 33.0448 22.1672 33.0948 22.0372 33.1648C21.7959 33.3175 21.5729 33.4942 21.3682 33.6948C21.3682 33.7548 21.2882 33.8248 21.2382 33.8748C21.1899 33.4293 21.054 32.9977 20.8382 32.6048C20.7395 32.4306 20.6151 32.2721 20.4692 32.1348C20.3367 31.9976 20.1851 31.8801 20.0192 31.7858C19.8721 31.7304 19.7219 31.6836 19.5692 31.6458C19.9213 31.3226 20.172 30.9041 20.2909 30.4412C20.4098 29.9782 20.3919 29.4908 20.2392 29.0378C20.0592 28.4942 19.7238 28.0152 19.2746 27.6601C18.8253 27.305 18.2818 27.0894 17.7112 27.0398C17.1825 27.0009 16.6584 27.1614 16.2422 27.4898C15.6963 27.9433 15.3399 28.5847 15.2432 29.2878C15.1489 29.6837 15.1683 30.0982 15.2992 30.4835C15.4301 30.8689 15.6672 31.2094 15.9832 31.4658C15.7202 31.5303 15.4652 31.6242 15.2232 31.7458C15.0612 31.8472 14.9146 31.9672 14.7832 32.1058C14.6556 32.2493 14.5448 32.407 14.4532 32.5758C14.2336 32.951 14.088 33.3648 14.0242 33.7948C14.0088 33.8428 14.003 33.8933 14.0072 33.9435C14.0114 33.9936 14.0256 34.0425 14.0488 34.0871C14.0721 34.1318 14.104 34.1714 14.1427 34.2036C14.1814 34.2358 14.2261 34.26 14.2742 34.2748C14.3711 34.3068 14.4766 34.2996 14.5682 34.2548C14.6598 34.2099 14.7302 34.131 14.7642 34.0348C14.8562 33.8622 14.9662 33.7022 15.0942 33.5548C15.2196 33.4175 15.3526 33.2875 15.4932 33.1648L15.8632 32.7748C16.1066 32.4588 16.3729 32.1625 16.6622 31.8858C16.7269 31.8514 16.7767 31.7945 16.8022 31.7258H16.9722C17.0634 31.7286 17.1521 31.6956 17.2193 31.634C17.2866 31.5724 17.3271 31.4869 17.3322 31.3958C17.3275 31.3152 17.2933 31.2391 17.2362 31.1819C17.179 31.1248 17.1029 31.0906 17.0222 31.0858C16.1622 30.9758 16.0222 30.1868 16.2122 29.4878C16.4022 28.7888 16.8822 28.2178 17.5922 28.3078C17.9234 28.3301 18.241 28.4477 18.5068 28.6464C18.7726 28.8451 18.9752 29.1165 19.0902 29.4278C19.233 29.7363 19.2651 30.0846 19.1814 30.414C19.0976 30.7434 18.903 31.034 18.6302 31.2368C18.5039 31.3351 18.3568 31.4035 18.2002 31.4368C18.0069 31.4768 17.8106 31.5035 17.6112 31.5168C17.5483 31.5203 17.4872 31.5389 17.433 31.5711C17.3789 31.6033 17.3333 31.6482 17.3003 31.7019C17.2673 31.7555 17.2477 31.8164 17.2434 31.8793C17.239 31.9421 17.2499 32.0051 17.2752 32.0628C17.3067 32.1325 17.3585 32.1911 17.4238 32.2309C17.4891 32.2706 17.5649 32.2898 17.6412 32.2858C17.9293 32.3004 18.218 32.2802 18.5012 32.2258H18.6412C18.9012 32.4558 19.1112 32.7058 19.3302 32.9258L19.7302 33.3248C19.8769 33.4468 20.0169 33.5768 20.1502 33.7148C20.2809 33.8655 20.3942 34.0288 20.4902 34.2048C20.5152 34.2776 20.5622 34.3408 20.6248 34.3856C20.6873 34.4304 20.7623 34.4546 20.8392 34.4548C20.5228 35.0069 20.3126 35.6134 20.2192 36.2428C20.1958 36.2936 20.1836 36.3488 20.1834 36.4048C20.1832 36.4607 20.195 36.516 20.218 36.5669C20.2411 36.6179 20.2748 36.6633 20.317 36.7001C20.3591 36.7368 20.4086 36.7641 20.4622 36.78C20.5158 36.796 20.5722 36.8002 20.6276 36.7924C20.683 36.7846 20.7361 36.765 20.7832 36.735C20.8303 36.7049 20.8704 36.665 20.9008 36.618C20.9312 36.5711 20.9511 36.5182 20.9592 36.4628C21.2737 35.7865 21.7225 35.1813 22.2782 34.6838L22.7482 34.2438C22.9896 34.0232 23.2459 33.8198 23.5172 33.6338C23.5506 33.6355 23.5839 33.6355 23.6172 33.6338C24.1292 33.7238 24.6532 33.7238 25.1662 33.6338C25.1956 33.6438 25.2256 33.6438 25.2562 33.6338C25.3062 33.7052 25.3787 33.7578 25.4621 33.7832C25.5455 33.8085 25.635 33.8053 25.7162 33.7738C25.8629 33.7065 26.0026 33.6265 26.1352 33.5338C26.4319 33.7578 26.7152 33.9978 26.9852 34.2538C27.1452 34.4138 27.2842 34.5738 27.4142 34.7238C27.9127 35.3097 28.2897 35.9889 28.5232 36.7218C28.5381 36.7712 28.5626 36.8172 28.5953 36.8571C28.6281 36.897 28.6684 36.93 28.714 36.9541C28.7595 36.9783 28.8095 36.9932 28.8608 36.998C28.9122 37.0027 28.964 36.9972 29.0132 36.9818C29.1107 36.9558 29.1947 36.894 29.2484 36.8087C29.3022 36.7234 29.3218 36.6209 29.3032 36.5218C29.257 35.8706 29.1225 35.2288 28.9032 34.6138C28.843 34.4884 28.7728 34.368 28.6932 34.2538C28.7832 34.274 28.8775 34.2608 28.9584 34.2167C29.0394 34.1725 29.1015 34.1004 29.1332 34.0138C29.2319 33.8438 29.3452 33.6838 29.4732 33.5338C29.5832 33.3938 29.7332 33.2948 29.8622 33.1548C29.9922 33.0148 30.1122 32.9148 30.2322 32.7748C30.4756 32.4615 30.7422 32.1685 31.0322 31.8958C31.1003 31.8631 31.1535 31.806 31.1812 31.7358H31.3512C31.4414 31.7358 31.5279 31.7 31.5917 31.6362C31.6554 31.5725 31.6912 31.486 31.6912 31.3958C31.6912 31.3057 31.6554 31.2192 31.5917 31.1554C31.5279 31.0917 31.4414 31.0558 31.3512 31.0558C30.5012 30.9458 30.3512 30.1568 30.5412 29.4578C30.7312 28.7588 31.2212 28.1878 31.9312 28.2778C32.261 28.3007 32.577 28.4187 32.8411 28.6175C33.1052 28.8163 33.306 29.0873 33.4192 29.3978C33.5751 29.7043 33.6195 30.0554 33.5447 30.391C33.4699 30.7266 33.2806 31.0256 33.0092 31.2368C32.8792 31.3328 32.7292 31.4008 32.5702 31.4368C32.3789 31.4768 32.1856 31.5035 31.9902 31.5168C31.8887 31.522 31.7933 31.5666 31.7242 31.6411C31.655 31.7157 31.6178 31.8142 31.6202 31.9158C31.6202 31.9662 31.6304 32.016 31.6502 32.0622C31.67 32.1084 31.6991 32.1502 31.7356 32.1848C31.7721 32.2194 31.8153 32.2463 31.8625 32.2636C31.9097 32.281 31.96 32.2886 32.0102 32.2858C32.3029 32.2998 32.5929 32.2798 32.8802 32.2258H33.0202C33.2802 32.4558 33.4902 32.6958 33.7102 32.9158C33.9302 33.1358 33.9792 33.1758 34.1092 33.3048C34.2392 33.4348 34.3992 33.5448 34.5292 33.6948C34.6559 33.8448 34.7692 34.0048 34.8692 34.1748C34.883 34.2238 34.9064 34.2694 34.9381 34.3091C34.9698 34.3489 35.0091 34.3818 35.0538 34.406C35.0985 34.4303 35.1475 34.4453 35.1981 34.4503C35.2487 34.4552 35.2997 34.45 35.3482 34.4348C35.4458 34.4048 35.5276 34.3376 35.5762 34.2479C35.6248 34.1582 35.6363 34.053 35.6082 33.9548C35.5605 33.4969 35.4174 33.0541 35.1882 32.6548C35.0905 32.4621 34.9622 32.2875 34.8082 32.1358ZM23.2272 32.4748C23.0269 32.22 22.8951 31.9182 22.8443 31.5981C22.7936 31.2779 22.8256 30.9501 22.9372 30.6458C23.0066 30.3526 23.1509 30.0825 23.3559 29.8618C23.561 29.6411 23.8199 29.4774 24.1072 29.3868C24.5719 29.2213 25.0823 29.2399 25.5337 29.4389C25.985 29.6379 26.3431 30.0021 26.5342 30.4568C27.6642 33.1538 23.8862 33.2038 23.2272 32.4748Z" fill="white"/>
<path fill-rule="evenodd" clip-rule="evenodd" d="M15.533 26.1201C15.683 26.1201 15.733 26.2601 16.412 24.7811C16.502 24.5911 16.572 24.3811 16.642 24.1911C17.102 22.9931 17.252 22.9331 17.022 22.7031C16.572 22.3031 15.612 23.5531 15.602 23.5831C15.3833 23.8621 15.2388 24.1921 15.182 24.5421C15.123 24.8421 15.074 26.0801 15.533 26.1201ZM35.818 23.9921C35.7513 23.8314 35.6639 23.6801 35.558 23.5421C35.558 23.5421 34.558 22.2631 34.138 22.6631C33.889 22.8931 34.029 22.9731 34.488 24.1521C34.568 24.3421 34.638 24.5521 34.718 24.7421C35.408 26.2201 35.448 26.0901 35.608 26.0811C36.068 26.0811 36.008 24.8011 35.968 24.5011C35.9409 24.3255 35.8904 24.1543 35.818 23.9921ZM19.02 21.7141C19.116 21.6701 19.206 21.6167 19.29 21.5541C19.3785 21.5022 19.4593 21.4383 19.53 21.3641C20.29 20.6941 20.43 20.6441 20.32 20.3641C20.32 20.2541 20.16 19.8851 18.92 20.3141C18.6769 20.3973 18.4573 20.538 18.28 20.7241C18.121 20.9041 17.531 21.7241 17.771 21.9641C17.861 22.0441 17.92 22.2141 19.02 21.7141ZM31.59 21.3641C31.666 21.4341 31.746 21.4974 31.83 21.5541C31.9187 21.6167 32.012 21.6701 32.11 21.7141C33.22 22.2141 33.28 22.0441 33.36 21.9541C33.6 21.6941 33 20.8941 32.85 20.7141C32.6654 20.5322 32.4437 20.3923 32.2 20.3041C30.971 19.8751 30.841 20.2441 30.801 20.3541C30.701 20.6441 30.84 20.6941 31.59 21.3641Z" fill="#0C6FFF"/>
</g>
<defs>
<clipPath id="clip0_1836_5024">
<rect width="24" height="24" fill="white" transform="translate(13 13)"/>
</clipPath>
</defs>
</svg>
