<svg width="50" height="50" viewBox="0 0 50 50" fill="none" xmlns="http://www.w3.org/2000/svg">
<rect width="50" height="50" rx="10" fill="#0077B6"/>
<g clip-path="url(#clip0_1785_3163)">
<path d="M18.6885 24.4451L19.5017 32.5933L27.4946 30.8262C27.5909 30.8047 27.6905 30.8024 27.7876 30.8194C27.8848 30.8364 27.9777 30.8723 28.0609 30.9252C28.1442 30.9781 28.2162 31.0468 28.2729 31.1276C28.3296 31.2083 28.3699 31.2994 28.3914 31.3957C28.4129 31.4919 28.4152 31.5915 28.3982 31.6887C28.3812 31.7858 28.3452 31.8787 28.2924 31.962C28.2395 32.0452 28.1707 32.1173 28.09 32.174C28.0093 32.2307 27.9182 32.2709 27.8219 32.2924L19.0034 34.2407C18.8996 34.264 18.792 34.2651 18.6877 34.2436C18.5835 34.2222 18.485 34.1789 18.3988 34.1165C18.3127 34.054 18.2407 33.974 18.1879 33.8817C18.135 33.7893 18.1024 33.6868 18.0922 33.5809L17.1912 24.5947C17.1814 24.4964 17.191 24.3971 17.2196 24.3025C17.2481 24.208 17.295 24.1199 17.3576 24.0434C17.4202 23.967 17.4972 23.9036 17.5842 23.8569C17.6713 23.8102 17.7667 23.7811 17.8651 23.7713C17.9634 23.7614 18.0627 23.7711 18.1572 23.7996C18.2518 23.8282 18.3399 23.875 18.4164 23.9376C18.4928 24.0002 18.5562 24.0772 18.6029 24.1643C18.6496 24.2514 18.6787 24.3468 18.6885 24.4451ZM30.9945 15.7623L22.176 17.7106C21.9816 17.754 21.8123 17.8729 21.7055 18.041C21.5988 18.2092 21.5631 18.4129 21.6065 18.6074C21.6499 18.8018 21.7688 18.971 21.937 19.0778C22.1051 19.1846 22.3089 19.2202 22.5033 19.1768L30.4984 17.4066L31.3138 25.5519C31.3234 25.65 31.3523 25.7453 31.3987 25.8323C31.4452 25.9194 31.5083 25.9964 31.5846 26.059C31.6608 26.1216 31.7486 26.1686 31.843 26.1973C31.9374 26.2259 32.0365 26.2357 32.1346 26.2261C32.2328 26.2165 32.3281 26.1876 32.4151 26.1411C32.5022 26.0947 32.5792 26.0315 32.6418 25.9553C32.7044 25.8791 32.7514 25.7913 32.78 25.6969C32.8087 25.6025 32.8185 25.5034 32.8089 25.4052L31.908 16.4191C31.8977 16.3132 31.8651 16.2106 31.8123 16.1183C31.7594 16.026 31.6875 15.9459 31.6013 15.8835C31.5151 15.8211 31.4166 15.7778 31.3124 15.7563C31.2082 15.7349 31.1006 15.7359 30.9967 15.7593L30.9945 15.7623Z" fill="white"/>
</g>
<defs>
<clipPath id="clip0_1785_3163">
<rect width="24" height="24" fill="white" transform="translate(8.24219 27.6816) rotate(-54.0918)"/>
</clipPath>
</defs>
</svg>
