<svg width="50" height="50" viewBox="0 0 50 50" fill="none" xmlns="http://www.w3.org/2000/svg">
<rect width="50" height="50" rx="10" fill="#0077B6"/>
<path d="M32.3775 16.2769L28.7944 21.9752L28.4077 20.4429L26.9912 24.6133L29.9282 23.2364L29.9385 24.6163L35.893 22.2286L32.5737 22.1362L34.8135 18.9166L31.3695 20.7564L32.3774 16.2769L32.3775 16.2769ZM22.8546 17.7857L21.3546 18.461L22.1455 21.0699L13.8105 24.8213L14.3995 26.128L22.7344 22.3751L24.1597 24.694L26.4712 23.6538L25.4707 20.3565L22.8546 17.7857ZM22.2627 25.5054V26.459H18.0952C18.8449 28.2781 20.4964 29.5261 22.2627 29.9409V31.4864H25.0078C24.4397 32.9174 23.4372 34.0966 22.267 35.1236H21.0733V35.9995H34.4017V35.1237H33.1171C31.7702 34.0973 30.7708 32.9197 30.2284 31.4864H33.2124V30.1182C34.1381 29.7903 35.064 29.2037 35.9897 28.3985C35.061 27.5771 34.1508 27.1212 33.2124 26.9014V25.5055H22.2627L22.2627 25.5054Z" fill="white"/>
</svg>
