<svg width="88" height="88" viewBox="0 0 88 88" fill="none" xmlns="http://www.w3.org/2000/svg">
<g filter="url(#filter0_dd_2992_5952)">
<mask id="path-1-inside-1_2992_5952" fill="white">
<path d="M12 18C12 9.16344 19.1634 2 28 2H60C68.8366 2 76 9.16344 76 18V50C76 58.8366 68.8366 66 60 66H28C19.1634 66 12 58.8366 12 50V18Z"/>
</mask>
<path d="M12 18C12 9.16344 19.1634 2 28 2H60C68.8366 2 76 9.16344 76 18V50C76 58.8366 68.8366 66 60 66H28C19.1634 66 12 58.8366 12 50V18Z" fill="white"/>
<path d="M28 2V4H60V2V0H28V2ZM76 18H74V50H76H78V18H76ZM60 66V64H28V66V68H60V66ZM12 50H14V18H12H10V50H12ZM28 66V64C20.268 64 14 57.732 14 50H12H10C10 59.9411 18.0589 68 28 68V66ZM76 50H74C74 57.732 67.732 64 60 64V66V68C69.9411 68 78 59.9411 78 50H76ZM60 2V4C67.732 4 74 10.268 74 18H76H78C78 8.05887 69.9411 0 60 0V2ZM28 2V0C18.0589 0 10 8.05887 10 18H12H14C14 10.268 20.268 4 28 4V2Z" fill="#00B4D8" mask="url(#path-1-inside-1_2992_5952)"/>
<path d="M32 36.6667H36C36.7072 36.6667 37.3855 36.9476 37.8856 37.4477C38.3857 37.9478 38.6667 38.6261 38.6667 39.3333V43.3333C38.6667 44.0406 38.3857 44.7189 37.8856 45.219C37.3855 45.719 36.7072 46 36 46H34.6667C33.9594 46 33.2811 45.719 32.781 45.219C32.281 44.7189 32 44.0406 32 43.3333V34C32 30.8174 33.2643 27.7652 35.5147 25.5147C37.7652 23.2643 40.8174 22 44 22C47.1826 22 50.2348 23.2643 52.4853 25.5147C54.7357 27.7652 56 30.8174 56 34V43.3333C56 44.0406 55.719 44.7189 55.219 45.219C54.7189 45.719 54.0406 46 53.3333 46H52C51.2928 46 50.6145 45.719 50.1144 45.219C49.6143 44.7189 49.3333 44.0406 49.3333 43.3333V39.3333C49.3333 38.6261 49.6143 37.9478 50.1144 37.4477C50.6145 36.9476 51.2928 36.6667 52 36.6667H56" stroke="#0077B6" stroke-width="2.66667" stroke-linecap="round" stroke-linejoin="round"/>
</g>
<defs>
<filter id="filter0_dd_2992_5952" x="0" y="0" width="88" height="88" filterUnits="userSpaceOnUse" color-interpolation-filters="sRGB">
<feFlood flood-opacity="0" result="BackgroundImageFix"/>
<feColorMatrix in="SourceAlpha" type="matrix" values="0 0 0 0 0 0 0 0 0 0 0 0 0 0 0 0 0 0 127 0" result="hardAlpha"/>
<feMorphology radius="4" operator="erode" in="SourceAlpha" result="effect1_dropShadow_2992_5952"/>
<feOffset dy="4"/>
<feGaussianBlur stdDeviation="3"/>
<feComposite in2="hardAlpha" operator="out"/>
<feColorMatrix type="matrix" values="0 0 0 0 0 0 0 0 0 0 0 0 0 0 0 0 0 0 0.1 0"/>
<feBlend mode="normal" in2="BackgroundImageFix" result="effect1_dropShadow_2992_5952"/>
<feColorMatrix in="SourceAlpha" type="matrix" values="0 0 0 0 0 0 0 0 0 0 0 0 0 0 0 0 0 0 127 0" result="hardAlpha"/>
<feMorphology radius="3" operator="erode" in="SourceAlpha" result="effect2_dropShadow_2992_5952"/>
<feOffset dy="10"/>
<feGaussianBlur stdDeviation="7.5"/>
<feComposite in2="hardAlpha" operator="out"/>
<feColorMatrix type="matrix" values="0 0 0 0 0 0 0 0 0 0 0 0 0 0 0 0 0 0 0.1 0"/>
<feBlend mode="normal" in2="effect1_dropShadow_2992_5952" result="effect2_dropShadow_2992_5952"/>
<feBlend mode="normal" in="SourceGraphic" in2="effect2_dropShadow_2992_5952" result="shape"/>
</filter>
</defs>
</svg>
