<svg width="56" height="56" viewBox="0 0 56 56" fill="none" xmlns="http://www.w3.org/2000/svg">
<rect width="56" height="56" rx="14" fill="url(#paint0_linear_2992_5890)"/>
<path d="M31.1492 21.3491C30.9355 21.5672 30.8157 21.8604 30.8157 22.1658C30.8157 22.4711 30.9355 22.7643 31.1492 22.9824L33.0159 24.8491C33.234 25.0629 33.5272 25.1826 33.8326 25.1826C34.138 25.1826 34.4312 25.0629 34.6492 24.8491L38.2729 21.2266C38.6462 20.8509 39.2797 20.9699 39.4197 21.4809C39.7722 22.763 39.7523 24.1188 39.3623 25.39C38.9723 26.6611 38.2284 27.7948 37.2175 28.6585C36.2067 29.5223 34.9708 30.0802 33.6544 30.2672C32.338 30.4541 30.9956 30.2623 29.7842 29.7141L20.5559 38.9424C20.0918 39.4064 19.4623 39.667 18.8061 39.6669C18.1498 39.6668 17.5205 39.406 17.0565 38.9418C16.5925 38.4777 16.3319 37.8483 16.332 37.192C16.3321 36.5357 16.5929 35.9064 17.0571 35.4424L26.2854 26.2141C25.7372 25.0028 25.5454 23.6604 25.7323 22.344C25.9193 21.0276 26.4772 19.7917 27.341 18.7808C28.2047 17.77 29.3384 17.026 30.6096 16.636C31.8807 16.246 33.2366 16.2261 34.5186 16.5786C35.0296 16.7186 35.1486 17.3509 34.7741 17.7266L31.1492 21.3491Z" stroke="white" stroke-width="2.33333" stroke-linecap="round" stroke-linejoin="round"/>
<defs>
<linearGradient id="paint0_linear_2992_5890" x1="0" y1="0" x2="56" y2="56" gradientUnits="userSpaceOnUse">
<stop offset="1" stop-color="#800080"/>
</linearGradient>
</defs>
</svg>
